<?xml version="1.0" encoding="UTF-8"?>
<svg id="Layer_1" xmlns="http://www.w3.org/2000/svg" version="1.1" viewBox="0 0 40 40">
  <!-- Generator: Adobe Illustrator 29.1.0, SVG Export Plug-In . SVG Version: 2.1.0 Build 142)  -->
  <defs>
    <style>
      .st0 {
        fill: #fff;
        fill-rule: evenodd;
      }
    </style>
  </defs>
  <path class="st0" d="M20.11,0c5.11.03,10.04,2.01,13.73,5.51,3.78,3.59,5.95,8.4,6.14,13.58.18,5.06-1.59,10.03-4.98,13.83-3.71,4.16-8.86,6.55-14.44,6.71h-.57c-3.01,0-5.98-.66-8.67-1.95l-10.47,2.31s-.02,0-.03,0c-.09,0-.17-.08-.16-.17l1.77-10.49C.94,26.6.09,23.52,0,20.39c-.15-5.29,1.78-10.32,5.44-14.17C9.26,2.22,14.45,0,20.01,0h.1ZM20,3.43c-.16,0-.32,0-.48,0C10.41,3.71,3.21,11.27,3.47,20.29c.08,2.76.86,5.47,2.26,7.83l.3.51-1.31,7.12,7.11-1.66.53.27c2.35,1.21,4.97,1.84,7.63,1.84.15,0,.31,0,.47,0,9.11-.25,16.31-7.81,16.05-16.84-.26-8.87-7.62-15.92-16.52-15.92h0ZM13.09,10.25c.33,0,.67.02.96.04.36.03.75.05,1.1.9.41,1,1.31,3.49,1.43,3.74.12.24.19.54.02.87-.17.33-.27.53-.53.81-.26.29-.54.63-.78.85-.26.23-.52.5-.25,1.01.28.51,1.23,2.16,2.69,3.53,1.86,1.75,3.36,2.33,3.95,2.61.22.1.39.14.55.14.21,0,.38-.09.55-.25.31-.32,1.25-1.4,1.65-1.9.2-.27.39-.36.6-.36.17,0,.34.06.54.14.45.18,2.88,1.46,3.37,1.73.5.26.83.4.95.61.12.21.09,1.21-.37,2.35-.45,1.15-2.54,2.21-3.45,2.26-.27.02-.54.06-.88.06-.84,0-2.14-.22-5.11-1.48-5.04-2.15-8.1-7.43-8.34-7.78-.24-.33-1.96-2.76-1.89-5.2.07-2.45,1.41-3.62,1.89-4.1.45-.46.97-.58,1.31-.58h.04ZM13.09,10.25"/>
</svg>