<?xml version="1.0" encoding="utf-8"?>
<!-- Generator: Adobe Illustrator 28.0.0, SVG Export Plug-In . SVG Version: 6.00 Build 0)  -->
<svg version="1.1" id="SvgjsSvg1061" xmlns="http://www.w3.org/2000/svg" xmlns:xlink="http://www.w3.org/1999/xlink" x="0px"
	 y="0px" viewBox="0 0 330 330" style="enable-background:new 0 0 330 330;" xml:space="preserve">
<style type="text/css">
	.st0{fill:#FFFFFF;}
</style>
<path class="st0" d="M271.4,330H58.6C26.3,330,0,303.7,0,271.4V58.6C0,26.3,26.3,0,58.6,0h212.9C303.7,0,330,26.3,330,58.6v212.9
	C330,303.7,303.7,330,271.4,330z"/>
<g>
	<path d="M165.4,156c18.6,12.9,45.7,31,100.5,85.9c-6,3.4-12.4,6.5-19.3,9.3c-31.9-33.8-131-33.7-162.9,0.2
		c-6.9-2.8-13.4-5.9-19.4-9.2c54.9-55.1,82-73.3,100.7-86.2c0.1,0,0.1-0.1,0.2-0.1C165.3,155.9,165.3,155.9,165.4,156z"/>
	<path d="M298.1,215.9c-5.2,6.2-11.5,12-18.8,17.4c-54.7-52-96-79.1-110.3-84.8c-1.5-0.6-2.8-1-3.8-1.2l0,0c-1,0.2-2.2,0.6-3.8,1.2
		c-14.3,5.7-55.6,32.9-110.4,85.1c-7.4-5.4-13.8-11.2-19-17.4c0.5-0.3,1.1-0.5,1.6-0.8c11.8-5.9,22.2-10.9,33.4-18.1
		c11.2-7.2,16.5-12,13.1-20.8c-2-7.4,18.9-13.6,40.5-23.9c23.6-11.2,34.3-16,41.2-17c1.2-0.2,2.2-0.2,3.3-0.2h0.1c1,0,2.1,0,3.3,0.2
		c6.9,1,17.6,5.8,41.2,17c21.7,10.3,42.6,16.5,40.6,23.9c-3.4,8.8,2,13.7,13.2,20.8s21.6,12.2,33.4,18.1
		C297.2,215.5,297.7,215.7,298.1,215.9z"/>
	<path d="M315,178.2c-0.8,8.1-3.3,16.1-7.4,23.9c-18-5.7-25.8-9.8-33.6-15.4c-3-2.2-6.5-5.2-5.5-9.1c0.7-2.8,3.5-4.1,0.1-9.6
		c-6-5.6-5.6-6.5-54.9-26.4c-23.7-10.1-34.2-14.2-48.4-14.2H165c-14.2,0-24.7,4.1-48.3,14.2c-49.2,19.9-48.8,20.7-54.9,26.4
		c-3.3,5.4-0.6,6.8,0.1,9.6c1,4-2.5,7-5.5,9.1c-7.8,5.6-15.7,9.8-34.1,15.5c-4-7.4-6.5-15.1-7.4-22.9c2.1-6.7,10.1-7.2,17.7-12.5
		c17.6-15,35.5-19,61.3-27.9c52.8-18.9,62.3-18,71.6-18.1c0.1,0,0.2,0,0.3,0c9,0,19.7-0.1,70.5,18.1c25.9,8.9,43.7,13,61.4,27.9
		C304.8,171.8,312.4,172.5,315,178.2z"/>
	<path d="M310,148c1.5,3.5,2.7,7,3.5,10.5c-0.7-0.3-1.5-0.6-2.3-0.8c-20.4-6.2-39.1-17.7-68-25.7c-36.5-10.1-54.9-16.4-72.6-17.6
		c-1.8-0.1-3.7-0.2-5.5-0.2c-1.9,0-3.7,0.1-5.6,0.2c-17.7,1.2-36,7.5-72.5,17.6c-28.8,8-47.5,19.5-68,25.7c-1,0.3-1.9,0.6-2.9,1.1
		c0.9-3.6,2-7.2,3.6-10.7c0.1-0.2,0.2-0.4,0.3-0.6c11.8-6.2,46.5-20.1,72.2-25.5c25.8-5.3,51.8-13.4,70.6-14c0.5,0,0.9,0,1.4,0l0,0
		c0.6,0,1.1,0,1.7,0c0.5,0,0.9,0,1.4,0c18.7,0.6,44.8,8.7,70.6,14c25.3,5.3,59.2,18.9,71.6,25.2C309.8,147.3,309.9,147.7,310,148z"
		/>
	<path d="M298.1,128.9c-18.7-5.4-39.9-10.9-60.2-14.7c-29.3-4.7-43.3-11.5-71.1-12c0,0-0.9,0-1.4,0h-0.2c-0.5,0-1.1,0-1.6,0
		c-27.9,0.5-41.8,7.3-71.1,12c-20.5,3.9-42,9.4-60.8,14.9c3.3-3.9,7-7.7,11-11.2c13-2.9,51.6-9.3,83.5-16
		c20.2-3.7,32.2-4.4,37.5-4.4c0.6,0,1.1,0,1.6,0c0.4,0,0.9,0,1.6,0c5.2,0.1,17.3,0.7,37.5,4.4c31.4,6.5,69.3,12.8,82.9,15.8
		C291.1,121.2,294.8,124.9,298.1,128.9z"/>
	<path d="M268.9,104.7c-15.8-2.3-38.6-5.5-57.2-8.2c-21.6-3.1-30.3-4.1-44.7-4.6c-0.6,0-1.2,0-1.9-0.1c-0.6,0-1.3,0-1.9,0.1
		c-14.3,0.5-23.1,1.5-44.6,4.6c-18.8,2.7-42,6-57.7,8.3c3.4-2,6.9-3.9,10.5-5.7c5.9-1.8,15.7-3.4,40.7-6.4c22-2.9,37.1-4.6,53.1-4.9
		c16,0.3,31.1,2,53.1,4.9c23.6,2.7,33.6,4.4,39.6,6C261.7,100.6,265.3,102.6,268.9,104.7z"/>
	<path d="M226.6,86.9c-2-0.2-3.9-0.5-5.7-0.7c-28.5-3.1-37.3-3.4-53.5-3.6c-0.7,0-1.5,0-2.3,0s-1.5,0-2.3,0
		c-16.2,0.2-25,0.4-53.5,3.6c-2,0.2-4.2,0.5-6.4,0.8c18.9-5.4,40-8.3,62-8.3C186.8,78.6,207.8,81.6,226.6,86.9z"/>
</g>
</svg>
